<svg width="96" height="96" xmlns="http://www.w3.org/2000/svg" xmlns:xlink="http://www.w3.org/1999/xlink" xml:space="preserve" overflow="hidden"><g transform="translate(-843 -242)"><path d="M891 258C898.732 258 905 264.268 905 272 905 279.732 898.732 286 891 286 883.268 286 877 279.732 877 272 877.008 264.271 883.271 258.008 891 258M891 256C882.163 256 875 263.163 875 272 875 280.837 882.163 288 891 288 899.837 288 907 280.837 907 272 907 263.163 899.837 256 891 256Z"/><path d="M923 324 921 324 921 308.5C920.952 306.376 919.952 304.386 918.275 303.081 913.889 299.716 908.868 297.273 903.513 295.9 899.459 294.652 895.242 294.012 891 294 886.759 294.074 882.548 294.713 878.476 295.9 873.177 297.452 868.178 299.886 863.688 303.1 862.028 304.406 861.042 306.388 861 308.5L861 324 859 324 859 308.5C859.05 305.769 860.326 303.205 862.476 301.519 867.167 298.151 872.395 295.601 877.937 293.977 882.184 292.74 886.577 292.075 891 292 895.432 292.011 899.838 292.678 904.075 293.979 909.685 295.424 914.943 297.991 919.533 301.525 921.678 303.211 922.952 305.772 923 308.5Z"/></g></svg>